<?xml version="1.0" encoding="utf-8"?>
<!-- Generator: Adobe Illustrator 22.0.1, SVG Export Plug-In . SVG Version: 6.00 Build 0)  -->
<svg version="1.1" id="Layer_1" xmlns="http://www.w3.org/2000/svg" xmlns:xlink="http://www.w3.org/1999/xlink" x="0px" y="0px"
	 viewBox="0 0 500 259.8" style="enable-background:new 0 0 500 259.8;" xml:space="preserve">
<style type="text/css">
	.st0{fill:none;stroke:#000000;stroke-miterlimit:10;}
	.st1{fill:#010101;}
	.st2{fill:#A9A8A8;}
</style>
<g id="Layer_2_1_">
	<g>
		<rect x="0.4" class="st0" width="500" height="259.8"/>
	</g>
</g>
<g id="Layer_1_1_">
	<g>
		<g>
			<path class="st1" d="M74.8,112.8c-3,0-5.3-0.9-6.9-2.8s-2.5-4.4-2.7-7.7l4.5-1.2c0.3,5.2,2,7.7,5.1,7.7c1.3,0,2.3-0.4,2.9-1.1
				c0.7-0.7,1-1.8,1-3.2c0-0.8-0.1-1.5-0.3-2.1c-0.2-0.6-0.5-1.2-0.9-1.8s-0.8-1.1-1.2-1.4c-0.4-0.4-0.9-0.9-1.6-1.5l-6-5.4
				c-1.2-1.1-2.1-2.3-2.7-3.5s-0.8-2.7-0.8-4.5c0-2.6,0.8-4.6,2.3-6.1s3.6-2.2,6.2-2.2c2.9,0,5,0.7,6.5,2.2c1.4,1.5,2.3,3.9,2.6,7.1
				l-4.2,1.2c-0.1-0.8-0.1-1.5-0.2-2.1s-0.3-1.2-0.5-1.8c-0.2-0.6-0.5-1.1-0.8-1.5s-0.8-0.7-1.3-0.9c-0.6-0.2-1.2-0.3-1.9-0.3
				c-2.6,0.2-4,1.5-4,4c0,1.1,0.2,1.9,0.5,2.6c0.4,0.7,1,1.5,1.8,2.2l6.1,5.4c1.6,1.4,2.8,2.9,3.8,4.6c0.9,1.6,1.4,3.5,1.4,5.5
				c0,2.6-0.8,4.7-2.4,6.3C79.5,112,77.4,112.8,74.8,112.8z"/>
			<path class="st1" d="M87.9,112.4l7.7-36h4.8l7.7,36h-4.8l-1.6-9.1h-7.3l-1.7,9.1H87.9z M95.1,99.7h6l-3-16.3L95.1,99.7z"/>
			<path class="st1" d="M114.3,112.4v-36h7.2c3.6,0,6.3,0.7,8,2.2s2.6,3.9,2.6,7.3c0,4.6-1.5,7.4-4.5,8.4l5.1,18.1H128l-4.7-16.9
				h-3.9v16.9H114.3z M119.3,91.9h1.9c2.2,0,3.7-0.4,4.7-1.3s1.4-2.4,1.4-4.7c0-2.2-0.4-3.7-1.2-4.6c-0.8-0.9-2.3-1.3-4.5-1.3h-2.2
				v11.9H119.3z"/>
			<path class="st1" d="M140.2,112.4v-36h4.9v36H140.2z"/>
			<path class="st1" d="M159,112.4V99.7l-7.8-23.3h4.7l5.5,17.3l5.4-17.3h4.7l-7.8,23.3v12.7C163.7,112.4,159,112.4,159,112.4z"/>
			<path class="st1" d="M174.5,112.4l7.7-36h4.8l7.7,36h-4.8l-1.6-9.1H181l-1.7,9.1H174.5z M181.6,99.7h6l-3-16.3L181.6,99.7z"/>
		</g>
		<g>
			<path class="st1" d="M252.1,112.4l7.7-36h4.8l7.7,36h-4.8l-1.6-9.1h-7.3l-1.7,9.1H252.1z M259.2,99.7h6l-3-16.3L259.2,99.7z"/>
			<path class="st1" d="M287,112.8c-3,0-5.3-0.9-6.9-2.8s-2.5-4.4-2.7-7.7l4.5-1.2c0.3,5.2,2,7.7,5.1,7.7c1.3,0,2.3-0.4,2.9-1.1
				c0.7-0.7,1-1.8,1-3.2c0-0.8-0.1-1.5-0.3-2.1c-0.2-0.6-0.5-1.2-0.9-1.8c-0.4-0.6-0.8-1.1-1.2-1.4c-0.4-0.4-0.9-0.9-1.6-1.5l-6-5.4
				c-1.2-1.1-2.1-2.3-2.7-3.5s-0.8-2.7-0.8-4.5c0-2.6,0.8-4.6,2.3-6.1s3.6-2.2,6.2-2.2c2.9,0,5,0.7,6.5,2.2c1.4,1.5,2.3,3.9,2.6,7.1
				l-4.2,1.2c-0.1-0.8-0.1-1.5-0.2-2.1s-0.3-1.2-0.5-1.8c-0.2-0.6-0.5-1.1-0.8-1.5s-0.8-0.7-1.3-0.9c-0.6-0.2-1.2-0.3-1.9-0.3
				c-2.6,0.2-4,1.5-4,4c0,1.1,0.2,1.9,0.5,2.6c0.4,0.7,1,1.5,1.8,2.2l6.1,5.4c1.6,1.4,2.8,2.9,3.8,4.6c0.9,1.6,1.4,3.5,1.4,5.5
				c0,2.6-0.8,4.7-2.4,6.3C291.6,112,289.5,112.8,287,112.8z"/>
			<path class="st1" d="M310.6,112.8c-3,0-5.3-0.9-6.9-2.8s-2.5-4.4-2.7-7.7l4.5-1.2c0.3,5.2,2,7.7,5.1,7.7c1.3,0,2.3-0.4,2.9-1.1
				c0.7-0.7,1-1.8,1-3.2c0-0.8-0.1-1.5-0.3-2.1c-0.2-0.6-0.5-1.2-0.9-1.8c-0.4-0.6-0.8-1.1-1.2-1.4c-0.4-0.4-0.9-0.9-1.6-1.5l-6-5.4
				c-1.2-1.1-2.1-2.3-2.7-3.5s-0.8-2.7-0.8-4.5c0-2.6,0.8-4.6,2.3-6.1s3.6-2.2,6.2-2.2c2.9,0,5,0.7,6.5,2.2c1.4,1.5,2.3,3.9,2.6,7.1
				l-4.2,1.2c-0.1-0.8-0.1-1.5-0.2-2.1s-0.3-1.2-0.5-1.8c-0.2-0.6-0.5-1.1-0.8-1.5s-0.8-0.7-1.3-0.9c-0.6-0.2-1.2-0.3-1.9-0.3
				c-2.6,0.2-4,1.5-4,4c0,1.1,0.2,1.9,0.5,2.6c0.4,0.7,1,1.5,1.8,2.2l6.1,5.4c1.6,1.4,2.8,2.9,3.8,4.6c0.9,1.6,1.4,3.5,1.4,5.5
				c0,2.6-0.8,4.7-2.4,6.3C315.2,112,313.1,112.8,310.6,112.8z"/>
			<path class="st1" d="M334.8,112.8c-1.8,0-3.3-0.3-4.6-0.8c-1.3-0.5-2.3-1.3-3.1-2.4c-0.8-1-1.3-2.3-1.7-3.6s-0.5-3-0.5-4.9V87.5
				c0-3.7,0.8-6.6,2.3-8.5s4-2.9,7.5-2.9s6,1,7.5,2.9s2.3,4.8,2.3,8.5v13.7c0,3.7-0.8,6.6-2.3,8.6
				C340.8,111.8,338.3,112.8,334.8,112.8z M332.4,108.4c0.6,0.3,1.5,0.5,2.4,0.5s1.8-0.2,2.4-0.5s1.1-0.8,1.5-1.4
				c0.3-0.6,0.6-1.3,0.7-2.1c0.1-0.7,0.2-1.7,0.2-2.8V86.4c0-1.1-0.1-2-0.2-2.7s-0.4-1.4-0.7-2s-0.8-1.1-1.5-1.3
				c-0.6-0.3-1.5-0.4-2.4-0.4s-1.8,0.1-2.4,0.4s-1.1,0.7-1.5,1.3c-0.3,0.6-0.6,1.3-0.7,2s-0.2,1.6-0.2,2.7v15.8c0,1.1,0.1,2,0.2,2.8
				s0.4,1.4,0.7,2.1C331.3,107.6,331.7,108.1,332.4,108.4z"/>
			<path class="st1" d="M361.2,112.8c-1.5,0-2.8-0.2-3.9-0.6s-2.1-1-2.8-1.6c-0.7-0.7-1.3-1.6-1.8-2.6s-0.8-2.1-0.9-3.3
				c-0.2-1.1-0.3-2.4-0.3-3.8V88.1c0-1.5,0.1-2.9,0.3-4.1c0.2-1.2,0.5-2.3,0.9-3.3s1-1.9,1.8-2.5c0.7-0.7,1.6-1.2,2.8-1.6
				c1.1-0.4,2.4-0.6,3.9-0.6c3.2,0,5.6,0.9,7,2.6c1.4,1.8,2.1,4.3,2.1,7.7v2.9h-4.8v-2.5c0-0.6,0-1,0-1.3s0-0.7,0-1.2
				s-0.1-0.8-0.1-1.1s-0.1-0.6-0.2-0.9s-0.2-0.6-0.4-0.8c-0.1-0.2-0.3-0.4-0.5-0.6s-0.5-0.4-0.7-0.5c-0.3-0.1-0.6-0.2-1-0.3
				c-0.4-0.1-0.8-0.1-1.3-0.1c-0.7,0-1.3,0.1-1.8,0.2c-0.5,0.2-0.9,0.4-1.3,0.7s-0.6,0.7-0.8,1.1c-0.2,0.4-0.4,0.9-0.5,1.5
				s-0.2,1.2-0.2,1.8c0,0.6-0.1,1.3-0.1,2.1v14.2c0,2.7,0.3,4.6,1,5.6s1.9,1.6,3.6,1.6c0.7,0,1.2-0.1,1.7-0.2s0.9-0.4,1.2-0.7
				s0.6-0.7,0.7-1c0.2-0.4,0.3-0.9,0.4-1.5s0.1-1.2,0.2-1.7c0-0.5,0-1.2,0-2V99h4.8v2.7c0,1.4-0.1,2.6-0.3,3.7
				c-0.2,1.1-0.5,2.1-0.9,3.1c-0.4,0.9-1,1.7-1.7,2.4c-0.7,0.6-1.5,1.1-2.6,1.5S362.6,112.8,361.2,112.8z"/>
			<path class="st1" d="M377.8,112.4v-36h4.9v36H377.8z"/>
			<path class="st1" d="M389.1,112.4l7.7-36h4.8l7.7,36h-4.8l-1.7-9.1h-7.3l-1.7,9.1H389.1z M396.3,99.7h6l-3-16.3L396.3,99.7z"/>
			<path class="st1" d="M417.8,112.4V80.1h-6.6v-3.7h17.9v3.7h-6.3v32.3C422.8,112.4,417.8,112.4,417.8,112.4z"/>
			<path class="st1" d="M434.5,112.4v-36h13.9v3.7h-8.9V92h7.3v3.6h-7.3v13.2h9v3.6C448.5,112.4,434.5,112.4,434.5,112.4z"/>
			<path class="st1" d="M463.6,112.8c-3,0-5.3-0.9-6.9-2.8s-2.5-4.4-2.7-7.7l4.5-1.2c0.3,5.2,2,7.7,5.1,7.7c1.3,0,2.3-0.4,2.9-1.1
				c0.7-0.7,1-1.8,1-3.2c0-0.8-0.1-1.5-0.3-2.1c-0.2-0.6-0.5-1.2-0.9-1.8c-0.4-0.6-0.8-1.1-1.2-1.4c-0.4-0.4-0.9-0.9-1.6-1.5l-6-5.4
				c-1.2-1.1-2.1-2.3-2.7-3.5s-0.8-2.7-0.8-4.5c0-2.6,0.8-4.6,2.3-6.1s3.6-2.2,6.2-2.2c2.9,0,5,0.7,6.5,2.2c1.4,1.5,2.3,3.9,2.6,7.1
				l-4.2,1.2c-0.1-0.8-0.1-1.5-0.2-2.1s-0.3-1.2-0.5-1.8c-0.2-0.6-0.5-1.1-0.8-1.5s-0.8-0.7-1.3-0.9c-0.6-0.2-1.2-0.3-1.9-0.3
				c-2.6,0.2-4,1.5-4,4c0,1.1,0.2,1.9,0.5,2.6c0.4,0.7,1,1.5,1.8,2.2l6.1,5.4c1.6,1.4,2.8,2.9,3.8,4.6c0.9,1.6,1.4,3.5,1.4,5.5
				c0,2.6-0.8,4.7-2.4,6.3C468.2,112,466.1,112.8,463.6,112.8z"/>
		</g>
		<g>
			<path class="st1" d="M136.6,174.6c-0.9,0-1.7-0.1-2.3-0.4c-0.6-0.2-1.1-0.6-1.5-1.1s-0.6-1-0.8-1.7c-0.2-0.6-0.2-1.4-0.2-2.2
				v-5.7c0-0.9,0.1-1.6,0.2-2.3c0.2-0.6,0.4-1.2,0.8-1.7c0.4-0.5,0.9-0.8,1.5-1.1c0.6-0.2,1.4-0.4,2.3-0.4c0.9,0,1.6,0.1,2.2,0.3
				s1.1,0.5,1.4,1s0.6,0.9,0.7,1.4c0.2,0.5,0.2,1.2,0.2,1.9v1.4h-3.5v-1.6c0-0.3,0-0.4,0-0.6c0-0.1,0-0.3-0.1-0.5
				c0-0.2-0.1-0.4-0.2-0.5c-0.1-0.1-0.2-0.2-0.3-0.3s-0.3-0.1-0.6-0.1c-0.2,0-0.4,0-0.6,0.1s-0.3,0.2-0.4,0.3
				c-0.1,0.1-0.1,0.3-0.2,0.5c0,0.2-0.1,0.4-0.1,0.5c0,0.2,0,0.4,0,0.6v7.5c0,0.6,0.1,1.1,0.3,1.5c0.2,0.3,0.5,0.5,1,0.5
				c0.2,0,0.4,0,0.5-0.1c0.2-0.1,0.3-0.2,0.3-0.3s0.1-0.3,0.2-0.5c0-0.2,0.1-0.4,0.1-0.5s0-0.3,0-0.6v-1.7h3.5v1.4
				c0,0.6,0,1.1-0.1,1.6s-0.2,0.9-0.5,1.3c-0.2,0.4-0.5,0.8-0.8,1s-0.8,0.5-1.3,0.7C137.9,174.6,137.3,174.6,136.6,174.6z"/>
			<path class="st1" d="M144.1,174.4v-16h3.5v6.5h2.5v-6.5h3.5v16h-3.5v-7h-2.5v7H144.1z"/>
			<path class="st1" d="M156.3,174.4l3-16h4l3,16H163l-0.6-3.4h-2.3l-0.5,3.4H156.3z M160.5,168.9h1.7l-0.9-6.2L160.5,168.9z"/>
			<path class="st1" d="M168.8,174.4v-16h4.4c0.7,0,1.3,0,1.8,0.1s1,0.2,1.5,0.4s0.8,0.4,1.1,0.8c0.3,0.3,0.5,0.7,0.7,1.2
				s0.3,1.1,0.3,1.7c0,1-0.1,1.9-0.4,2.5c-0.3,0.6-0.8,1.1-1.5,1.5l2.2,7.8h-3.7l-1.8-7.2h-1v7.2H168.8z M172.4,165.2h0.9
				c0.7,0,1.2-0.2,1.5-0.6s0.4-0.9,0.4-1.7c0-0.7-0.1-1.3-0.4-1.6c-0.3-0.4-0.7-0.5-1.4-0.5h-1.1v4.4H172.4z"/>
			<path class="st1" d="M183.1,174.4V161h-2.5v-2.6h8.4v2.6h-2.4v13.4H183.1z"/>
			<path class="st1" d="M191.3,174.4v-16h7.2v2.4h-3.7v4h2.8v2.5h-2.8v4.8h3.7v2.4L191.3,174.4L191.3,174.4z"/>
			<path class="st1" d="M201.1,174.4v-16h4.4c0.7,0,1.3,0,1.8,0.1s1,0.2,1.5,0.4s0.8,0.4,1.1,0.8c0.3,0.3,0.5,0.7,0.7,1.2
				s0.3,1.1,0.3,1.7c0,1-0.1,1.9-0.4,2.5c-0.3,0.6-0.8,1.1-1.5,1.5l2.2,7.8h-3.7l-1.8-7.2h-1v7.2H201.1z M204.6,165.2h0.9
				c0.7,0,1.2-0.2,1.5-0.6s0.4-0.9,0.4-1.7c0-0.7-0.1-1.3-0.4-1.6c-0.3-0.4-0.7-0.5-1.4-0.5h-1.1v4.4H204.6z"/>
			<path class="st1" d="M213.8,174.4v-16h7.2v2.4h-3.7v4h2.8v2.5h-2.8v4.8h3.7v2.4L213.8,174.4L213.8,174.4z"/>
			<path class="st1" d="M223.6,174.4v-16h4c1,0,1.9,0.1,2.6,0.3c0.7,0.2,1.2,0.5,1.7,0.9c0.4,0.4,0.7,0.9,0.9,1.6
				c0.2,0.6,0.3,1.4,0.3,2.3v5.8c0,0.9-0.1,1.7-0.3,2.3s-0.5,1.2-0.9,1.6s-1,0.7-1.6,0.9c-0.7,0.2-1.5,0.3-2.6,0.3L223.6,174.4
				L223.6,174.4z M227.1,172h0.5c0.3,0,0.5,0,0.7-0.1c0.2,0,0.3-0.1,0.5-0.2s0.2-0.2,0.3-0.3s0.1-0.2,0.2-0.4c0-0.2,0.1-0.4,0.1-0.5
				c0-0.2,0-0.4,0-0.7v-6.9c0-0.4,0-0.7,0-0.9s-0.1-0.4-0.2-0.6c-0.1-0.2-0.3-0.3-0.5-0.4c-0.2-0.1-0.5-0.1-0.9-0.1h-0.5V172H227.1z
				"/>
			<path class="st1" d="M241.3,174.4l3-16h4l3,16H248l-0.6-3.4h-2.3l-0.5,3.4H241.3z M245.5,168.9h1.7l-0.9-6.2L245.5,168.9z"/>
			<path class="st1" d="M258.5,174.6c-0.9,0-1.7-0.1-2.3-0.4c-0.6-0.2-1.1-0.6-1.5-1.1s-0.6-1-0.8-1.7c-0.2-0.6-0.2-1.4-0.2-2.2
				v-5.7c0-0.9,0.1-1.6,0.2-2.3c0.2-0.6,0.4-1.2,0.8-1.7c0.4-0.5,0.9-0.8,1.5-1.1c0.6-0.2,1.4-0.4,2.3-0.4s1.6,0.1,2.2,0.3
				s1.1,0.5,1.4,1s0.6,0.9,0.7,1.4c0.2,0.5,0.2,1.2,0.2,1.9v1.4h-3.5v-1.6c0-0.3,0-0.4,0-0.6c0-0.1,0-0.3-0.1-0.5
				c0-0.2-0.1-0.4-0.2-0.5s-0.2-0.2-0.3-0.3s-0.3-0.1-0.6-0.1s-0.4,0-0.6,0.1s-0.3,0.2-0.4,0.3s-0.1,0.3-0.2,0.5
				c0,0.2-0.1,0.4-0.1,0.5c0,0.2,0,0.4,0,0.6v7.5c0,0.6,0.1,1.1,0.3,1.5c0.2,0.3,0.5,0.5,1,0.5c0.2,0,0.4,0,0.5-0.1
				c0.2-0.1,0.3-0.2,0.3-0.3c0.1-0.1,0.1-0.3,0.2-0.5c0-0.2,0.1-0.4,0.1-0.5s0-0.3,0-0.6v-1.7h3.5v1.4c0,0.6,0,1.1-0.1,1.6
				s-0.2,0.9-0.5,1.3c-0.2,0.4-0.5,0.8-0.8,1c-0.3,0.3-0.8,0.5-1.3,0.7C259.8,174.6,259.2,174.6,258.5,174.6z"/>
			<path class="st1" d="M270.5,174.6c-0.9,0-1.7-0.1-2.3-0.4c-0.6-0.2-1.1-0.6-1.5-1.1s-0.6-1-0.8-1.7c-0.2-0.6-0.2-1.4-0.2-2.2
				v-5.7c0-0.9,0.1-1.6,0.2-2.3c0.2-0.6,0.4-1.2,0.8-1.7s0.9-0.8,1.5-1.1c0.6-0.2,1.4-0.4,2.3-0.4s1.6,0.1,2.2,0.3s1.1,0.5,1.4,1
				s0.6,0.9,0.7,1.4c0.2,0.5,0.2,1.2,0.2,1.9v1.4h-3.5v-1.6c0-0.3,0-0.4,0-0.6c0-0.1,0-0.3-0.1-0.5c0-0.2-0.1-0.4-0.2-0.5
				s-0.2-0.2-0.3-0.3s-0.3-0.1-0.6-0.1s-0.4,0-0.6,0.1s-0.3,0.2-0.4,0.3s-0.1,0.3-0.2,0.5c0,0.2-0.1,0.4-0.1,0.5c0,0.2,0,0.4,0,0.6
				v7.5c0,0.6,0.1,1.1,0.3,1.5c0.2,0.3,0.5,0.5,1,0.5c0.2,0,0.4,0,0.5-0.1c0.2-0.1,0.3-0.2,0.3-0.3c0.1-0.1,0.1-0.3,0.2-0.5
				c0-0.2,0.1-0.4,0.1-0.5s0-0.3,0-0.6v-1.7h3.5v1.4c0,0.6,0,1.1-0.1,1.6s-0.2,0.9-0.5,1.3c-0.2,0.4-0.5,0.8-0.8,1
				c-0.3,0.3-0.8,0.5-1.3,0.7C271.8,174.6,271.2,174.6,270.5,174.6z"/>
			<path class="st1" d="M282.5,174.6c-0.9,0-1.6-0.1-2.3-0.4c-0.6-0.2-1.1-0.6-1.5-1.1s-0.6-1-0.8-1.6c-0.2-0.6-0.2-1.4-0.2-2.2
				v-5.9c0-0.9,0.1-1.6,0.2-2.2s0.4-1.2,0.8-1.6c0.4-0.5,0.9-0.8,1.5-1s1.4-0.3,2.3-0.3c1.7,0,3,0.4,3.7,1.3
				c0.7,0.9,1.1,2.2,1.1,3.9v5.9c0,1.7-0.4,3.1-1.1,3.9C285.5,174.2,284.3,174.6,282.5,174.6z M282,172c0.2,0.1,0.3,0.1,0.5,0.1
				s0.4,0,0.5-0.1s0.3-0.2,0.4-0.3s0.2-0.3,0.2-0.4s0.1-0.3,0.1-0.5s0-0.3,0-0.6v-7.7c0-0.2,0-0.4,0-0.6c0-0.2,0-0.3-0.1-0.5
				c0-0.2-0.1-0.3-0.2-0.4c-0.1-0.1-0.2-0.2-0.4-0.3s-0.3-0.1-0.5-0.1s-0.4,0-0.5,0.1c-0.2,0.1-0.3,0.2-0.4,0.3s-0.1,0.3-0.2,0.4
				c0,0.2-0.1,0.3-0.1,0.5c0,0.1,0,0.3,0,0.6v7.7c0,0.2,0,0.4,0,0.6s0,0.3,0.1,0.5s0.1,0.3,0.2,0.4C281.7,171.9,281.8,172,282,172z"
				/>
			<path class="st1" d="M295.1,174.6c-0.7,0-1.4-0.1-1.9-0.2c-0.5-0.2-1-0.4-1.4-0.6s-0.6-0.6-0.9-1.1c-0.2-0.4-0.4-0.9-0.5-1.5
				c-0.1-0.5-0.1-1.2-0.1-1.9v-11h3.5v11.5c0,0.3,0,0.5,0,0.6c0,0.2,0,0.4,0.1,0.6s0.1,0.4,0.2,0.5s0.2,0.2,0.4,0.3
				c0.2,0.1,0.3,0.1,0.6,0.1s0.4,0,0.6-0.1s0.3-0.2,0.4-0.3s0.1-0.3,0.2-0.5c0-0.2,0.1-0.4,0.1-0.6c0-0.2,0-0.4,0-0.6v-11.5h3.5v11
				c0,0.9-0.1,1.6-0.2,2.3c-0.2,0.6-0.4,1.2-0.8,1.6c-0.4,0.5-0.8,0.8-1.5,1C296.7,174.5,296,174.6,295.1,174.6z"/>
			<path class="st1" d="M303,174.4v-16h2.5l3.3,7.7v-7.7h2.9v16h-2.4l-3.3-8.3v8.3H303z"/>
			<path class="st1" d="M316.4,174.4V161H314v-2.6h8.4v2.6H320v13.4H316.4z"/>
			<path class="st1" d="M323.8,174.4l3-16h4l3,16h-3.3L330,171h-2.3l-0.5,3.4H323.8z M328,168.9h1.7l-0.9-6.2L328,168.9z"/>
			<path class="st1" d="M336.4,174.4v-16h2.5l3.3,7.7v-7.7h2.9v16h-2.4l-3.3-8.3v8.3H336.4z"/>
			<path class="st1" d="M349.9,174.4V161h-2.5v-2.6h8.4v2.6h-2.4v13.4H349.9z"/>
			<path class="st1" d="M362.4,174.6c-1.5,0-2.6-0.4-3.4-1.2s-1.1-2.1-1.2-3.9l3-0.5c0,1,0.1,1.7,0.4,2.2c0.2,0.5,0.6,0.7,1,0.7
				c0.6,0,0.9-0.4,0.9-1.2c0-0.4-0.1-0.8-0.2-1.2c-0.2-0.4-0.3-0.7-0.6-0.9c-0.2-0.3-0.5-0.6-0.9-0.9l-1.4-1.2
				c-0.3-0.3-0.6-0.6-0.8-0.8c-0.2-0.2-0.4-0.5-0.7-0.9c-0.2-0.3-0.4-0.7-0.5-1.1c-0.1-0.4-0.2-0.9-0.2-1.4c0-1.3,0.4-2.4,1.2-3.1
				c0.8-0.7,1.9-1.1,3.3-1.1c0.5,0,0.9,0.1,1.3,0.2c0.4,0.1,0.7,0.2,1,0.4s0.5,0.4,0.7,0.6c0.2,0.3,0.4,0.5,0.5,0.8s0.2,0.5,0.3,0.9
				c0.1,0.3,0.1,0.6,0.2,0.9c0,0.3,0,0.5,0.1,0.8l-3.1,0.4c0-0.3,0-0.5,0-0.7s0-0.4-0.1-0.6c0-0.2-0.1-0.4-0.1-0.5s-0.1-0.2-0.2-0.3
				s-0.2-0.2-0.3-0.2c-0.1,0-0.2-0.1-0.4-0.1c-0.3,0-0.5,0.1-0.7,0.4c-0.2,0.3-0.2,0.5-0.2,0.9c0,0.3,0,0.6,0.1,0.8s0.2,0.5,0.4,0.7
				s0.3,0.4,0.4,0.5s0.3,0.3,0.6,0.5l1.4,1.2c0.4,0.3,0.7,0.7,1,1s0.5,0.7,0.8,1c0.2,0.4,0.4,0.8,0.6,1.3c0.1,0.5,0.2,1,0.2,1.5
				c0,1.2-0.4,2.1-1.2,2.9C364.7,174.3,363.6,174.6,362.4,174.6z"/>
		</g>
		<g>
			<rect x="109.2" y="138.8" class="st2" width="282" height="4"/>
		</g>
		<g>
			<rect x="109.2" y="190.7" class="st2" width="282" height="4"/>
		</g>
		<g>
			<path class="st1" d="M26.8,112.4v-36H35c3.3,0,5.7,0.7,7.3,2.2s2.4,3.7,2.4,6.8c0,4.6-1.7,7.1-5.2,7.6c2.1,0.5,3.7,1.5,4.7,3
				s1.5,3.5,1.5,6.1c0,3.2-0.8,5.8-2.3,7.6c-1.5,1.8-3.8,2.7-7,2.7C36.4,112.4,26.8,112.4,26.8,112.4z M31.8,91.4h3
				c2.1,0,3.5-0.5,4.3-1.4s1.2-2.5,1.2-4.6c0-0.7-0.1-1.3-0.2-1.9c-0.1-0.5-0.2-1-0.4-1.4s-0.4-0.7-0.7-0.9c-0.3-0.3-0.7-0.5-1-0.6
				c-0.3-0.2-0.8-0.3-1.4-0.3c-0.6-0.1-1.1-0.1-1.7-0.2c-0.5,0-1.2,0-2,0h-1.2v11.3H31.8z M31.8,108.8h3.4c2.2,0,3.7-0.5,4.5-1.5
				s1.2-2.7,1.2-5.2c0-2.3-0.5-4-1.4-5.2c-0.9-1.1-2.5-1.7-4.6-1.7h-3v13.6H31.8z"/>
		</g>
		<g>
			<path class="st1" d="M220.9,112.8c-2.4,0-4.3-0.7-5.7-2.2s-2.1-3.4-2.1-5.9c0-2.1,0.5-4,1.4-5.6s2.2-3.3,3.8-4.7
				c-0.2-0.4-0.6-1-1-1.9c-0.5-0.8-0.8-1.5-1.1-2.1c-0.3-0.5-0.6-1.2-0.9-1.9c-0.3-0.8-0.6-1.5-0.7-2.2c-0.2-0.7-0.2-1.5-0.2-2.2
				c0-2.4,0.7-4.3,2.1-5.8c1.4-1.5,3.3-2.2,5.6-2.2c2.2,0,4,0.6,5.5,1.8c1.4,1.2,2.2,2.8,2.2,4.9c0,1.1-0.2,2.2-0.6,3.4
				c-0.4,1.1-1,2.2-1.7,3.3c-0.7,1-1.4,1.9-2.1,2.7c-0.7,0.8-1.4,1.6-2.3,2.4l5.4,8.6c0.8-1.6,1.4-4,1.8-7.2h4.7
				c0,1.7-0.4,3.4-1.1,5.4c-0.7,1.9-1.5,3.5-2.4,4.8c0.4,0.5,0.9,1,1.6,1.3c0.6,0.4,1.3,0.5,1.9,0.5v4.9c-0.1,0-0.4,0-0.6,0
				c-0.3,0-0.6,0-0.9-0.1c-0.3-0.1-0.6-0.1-0.8-0.2s-0.5-0.2-0.8-0.4c-0.3-0.2-0.5-0.3-0.7-0.4c-0.1-0.1-0.4-0.3-0.7-0.6
				c-0.3-0.3-0.5-0.5-0.6-0.6s-0.3-0.3-0.6-0.6c-0.3-0.3-0.5-0.5-0.5-0.6c-0.9,1.1-1.9,1.9-3.2,2.6S222.6,112.8,220.9,112.8z
				 M220.9,108.9c1.8,0,3.4-0.9,4.8-2.7l-5.5-8.5c-0.7,0.9-1.3,2-1.7,3.2s-0.6,2.5-0.6,3.8c0,1.2,0.2,2.2,0.7,3
				C219.1,108.5,219.8,108.9,220.9,108.9z M221.4,91.9c1-1.2,1.9-2.6,2.6-4.3c0.7-1.7,1.1-3.3,1.1-4.9c0-0.9-0.3-1.5-0.8-2
				S223,80,222.1,80c-1,0-1.7,0.4-2.2,1.2c-0.5,0.8-0.7,1.7-0.7,2.9C219.2,86,219.9,88.7,221.4,91.9z"/>
		</g>
	</g>
</g>
</svg>
